<?xml version="1.0" encoding="iso-8859-1"?>
<!-- Uploaded to: SVG Repo, www.svgrepo.com, Generator: SVG Repo Mixer Tools -->
<svg version="1.1" id="Layer_1" xmlns="http://www.w3.org/2000/svg" xmlns:xlink="http://www.w3.org/1999/xlink" 
	 viewBox="0 0 512.001 512.001" xml:space="preserve">
<rect x="34.752" y="34.751" style="fill:#BEC8D6;" width="442.498" height="301.176"/>
<path style="fill:#11113F;" d="M500.417,324.344h-11.584V34.751c0-6.397-5.187-11.584-11.584-11.584H267.584V11.584
	C267.584,5.187,262.397,0,256,0c-6.397,0-11.584,5.187-11.584,11.584v11.584H34.752c-6.397,0-11.584,5.187-11.584,11.584v289.593
	H11.584C5.188,324.344,0,329.531,0,335.928c0,6.397,5.187,11.584,11.584,11.584h232.833v53.299l-86.921,91.634
	c-4.403,4.642-4.21,11.973,0.432,16.376c4.64,4.405,11.974,4.21,16.376-0.432l70.113-73.914v65.943
	c0,6.397,5.187,11.584,11.584,11.584c6.397,0,11.584-5.187,11.584-11.584v-65.943l70.113,73.914
	c2.277,2.401,5.338,3.612,8.406,3.612c2.862,0,5.729-1.054,7.97-3.18c4.642-4.403,4.835-11.734,0.432-16.376l-86.921-91.634v-53.299
	h232.833c6.397,0,11.584-5.187,11.584-11.584C512,329.531,506.814,324.344,500.417,324.344z M46.335,46.335h419.33v278.009H46.335
	V46.335z"/>
</svg>